<svg id="header" xmlns="http://www.w3.org/2000/svg" viewBox="0 0 577.34 182.13"><defs><style>.cls-1{fill:#bdbedf;}.cls-2{fill:#bdbee0;}</style></defs><g id="header-text"><path class="cls-1" d="M97.16,159.38v14.74q0,22.65.54,27.88a74.43,74.43,0,0,0,1,7.51,14.78,14.78,0,0,0,1.49,4.06,20.48,20.48,0,0,0,6,6.19H70.1q5.63-3.48,7.34-6,3.27-4.85,3.27-12.53-.06-18.94-.07-34.32V129.48q0-10.6-3.34-15.38a22.29,22.29,0,0,0-3.07-3.28h53.55q4.84,1.71,6.62,12a32.34,32.34,0,0,1,.5,5.55,20,20,0,0,1-1.64,8.83l-3.84-7.69a19.65,19.65,0,0,0-11-10.11,26.54,26.54,0,0,0-9-1.43,55.17,55.17,0,0,0-7.12.32A5.52,5.52,0,0,0,99,119.79q-1.85,2.07-1.85,7.87a74.85,74.85,0,0,0,.29,8.05,7.66,7.66,0,0,0,1.35,3.67q2.2,2.77,9.33,2.77h22.35a17.54,17.54,0,0,1-3.34,5.84q-3.42,3.42-9.26,3.42a18.56,18.56,0,0,1-4.34-.5,29.24,29.24,0,0,0-6.77-.93,17.84,17.84,0,0,0-4.8.54,6.28,6.28,0,0,0-3,1.67Q97.17,154.19,97.16,159.38Z" transform="translate(-70.1 -39.05)"/><path class="cls-1" d="M177.27,221.19q-18.95,0-28.55-17.8-9.25-17.16-9.26-49.13,0-33.25,20.44-41.87a45.23,45.23,0,0,1,17.37-3q29.19,0,35.67,25.92,2.15,8.33,2.14,21.43a141.09,141.09,0,0,1-2.28,25.52,71.16,71.16,0,0,1-7,21.12Q196.22,221.18,177.27,221.19Zm.14-7.12q13.68,0,17.66-33.33a225.53,225.53,0,0,0,1.35-26.48q0-37.74-19.15-37.74t-19.15,37.74q0,44.49,11.46,56.18A10.78,10.78,0,0,0,177.41,214.07Z" transform="translate(-70.1 -39.05)"/><path class="cls-1" d="M251.05,152.12q-8.27,0-8.26,9.76,0,40.44,1.35,47.63a21.16,21.16,0,0,0,2,6.48l2.13,3.77H223a33.57,33.57,0,0,0,2.67-9q.39-3.63.68-7.76.57-8.4.57-22.57,0-17.16-.57-31.33l-.78-19.58q-.28-7.41-1.28-10.33a22.36,22.36,0,0,0-5.13-8.33h37.67q17.22,0,24.92,3.42,8.11,3.56,8.11,12.18,0,7.54-5.62,14.17a36.89,36.89,0,0,1-13.81,9.75q1.06,27.35,17.16,52.48,6.9,10.89,14.09,16.94H275q-7-9.54-12.89-38.66a166.69,166.69,0,0,1-2.59-16.8,69.48,69.48,0,0,0-1-8.09,5,5,0,0,0-1.25-2.24Q255.53,152.13,251.05,152.12Zm16.41-12.71a12.52,12.52,0,0,0,2.78-4.52,14.68,14.68,0,0,0,.82-4.66,17.34,17.34,0,0,0-.61-4.49,8.46,8.46,0,0,0-2.38-3.95c-2.62-2.56-7.17-3.85-13.68-3.85a48.35,48.35,0,0,0-5.87.29,5.84,5.84,0,0,0-3.52,1.56q-2.22,2.14-2.21,10.9c0,5.12.54,8.4,1.64,9.82q2.91,3.78,8.83,3.78c3.93,0,7-.46,9.07-1.39A15.32,15.32,0,0,0,267.46,139.41Z" transform="translate(-70.1 -39.05)"/><path class="cls-1" d="M394.59,121.86q0-6.9-4.41-11h25.28a26.81,26.81,0,0,0-7,10.54q-.93,2.28-1.86,4.91t-2.13,7.48l-2.56,11.11q-1.5,6.4-3.07,13.95-8.19,39.16-9.22,43.76a39.82,39.82,0,0,0-1,8.76,21.64,21.64,0,0,0,1.85,8.5l-24.92-.07a12.24,12.24,0,0,0,2-4.95,42.68,42.68,0,0,0,.32-5.66,64.28,64.28,0,0,0-1.14-10q-1.14-6.63-3-15.1l-9-38.45q-10.83,47.72-12.28,54.61a56,56,0,0,0-1.46,11,22.71,22.71,0,0,0,1.78,8.54l-24.92-.07q2.34-3.76,2.34-10.11,0-10.53-9.39-49-9.77-40.3-16.59-49.85H319.4a19.93,19.93,0,0,0-1.28,7.51,67.4,67.4,0,0,0,.75,9.58q.75,5.21,2,11.75t2.81,14l9.69,42.58q1.27-5.49,2.7-12.25,4-19.36,5.42-27.13l2.42-13.6Q346,130.76,346,126.35a66.1,66.1,0,0,0-.53-8.48,15,15,0,0,0-2.74-7.05h26.63a27,27,0,0,0-3,12.89q0,5.42,3.41,21.93l8.26,38.66,3,12.89,6-28.48q1.49-7.69,2.84-15.17l2.42-13.81Q394.59,126.14,394.59,121.86Z" transform="translate(-70.1 -39.05)"/><path class="cls-1" d="M463.59,219.76a37.19,37.19,0,0,0,.93-7.15c0-1.78,0-3.12-.11-4s-.16-1.86-.28-2.88-.26-2.16-.43-3.42-.32-2.71-.46-4.38q-1.64-17-11.61-28a32.28,32.28,0,0,0-9.54-7.37c-3.42-1.68-6.23-2.53-8.44-2.53a23.47,23.47,0,0,0-5.09.43,78.49,78.49,0,0,0-4,25q0,11.53,1.21,17.23a85.21,85.21,0,0,0,5.91,17.16H410.41q1.69-4.26,1.7-18a150,150,0,0,1,2.07-25.64A131.27,131.27,0,0,1,419.55,155,96.31,96.31,0,0,1,427,138.63a109.28,109.28,0,0,1,8.19-12.25,111.53,111.53,0,0,1,7.72-9q3.63-3.73,6.06-6.59h22.43q-3.08,3.5-3.07,9.76a74.79,74.79,0,0,0,.93,9.33l1.78,13q9.75,67.23,17.44,76.9ZM431.48,152.9a16.17,16.17,0,0,1,5.84-1.06,33,33,0,0,1,5.52.42,23.34,23.34,0,0,1,4.88,1.43A20.27,20.27,0,0,1,456.4,160q-3.48-18.28-4.27-22.35l-2.49-12.46-4.06,4.84A95.58,95.58,0,0,0,431.48,152.9Z" transform="translate(-70.1 -39.05)"/><path class="cls-1" d="M524,152.12q-8.26,0-8.26,9.76,0,40.44,1.35,47.63a21.48,21.48,0,0,0,2,6.48l2.14,3.77H495.92a33.57,33.57,0,0,0,2.67-9q.39-3.63.68-7.76.57-8.4.57-22.57,0-17.16-.57-31.33l-.78-19.58q-.28-7.41-1.29-10.33a22.21,22.21,0,0,0-5.12-8.33h37.66q17.24,0,24.93,3.42,8.12,3.56,8.11,12.18,0,7.54-5.62,14.17a36.93,36.93,0,0,1-13.82,9.75q1.08,27.35,17.16,52.48,6.91,10.89,14.1,16.94H547.9q-7-9.54-12.89-38.66-2-10.11-2.6-16.8a68.12,68.12,0,0,0-1-8.09,5,5,0,0,0-1.25-2.24Q528.46,152.13,524,152.12Zm16.41-12.71a12.66,12.66,0,0,0,2.78-4.52,14.66,14.66,0,0,0,.81-4.66,17.33,17.33,0,0,0-.6-4.49,8.4,8.4,0,0,0-2.39-3.95q-3.91-3.84-13.67-3.85a48.23,48.23,0,0,0-5.87.29,5.9,5.9,0,0,0-3.53,1.56q-2.2,2.14-2.2,10.9c0,5.12.54,8.4,1.63,9.82q2.92,3.78,8.83,3.78t9.08-1.39A15.43,15.43,0,0,0,540.39,139.41Z" transform="translate(-70.1 -39.05)"/><path class="cls-1" d="M577.74,219.76a34.32,34.32,0,0,0,2.67-9q.39-3.63.67-7.76.57-8.4.57-22.57,0-17.16-.57-31.33l-.78-19.58q-.28-7.41-1.28-10.33a22.36,22.36,0,0,0-5.13-8.33H613q24.35,0,31.83,19.16a45.3,45.3,0,0,1,2.63,16.37q0,53.76-36.45,68.5-12.33,5-29,5h-2.14C579.16,219.83,578.45,219.81,577.74,219.76ZM597.53,130l.07,70.91a17.69,17.69,0,0,0,.93,6.13c.57,1.38,1.75,2.06,3.56,2.06q12.67,0,19.72-16.09,6.84-15.66,6.83-43.43,0-14.59-3.41-22.15-4.63-10.17-16.09-10.18c-4.89,0-7.9.57-9,1.71a7.92,7.92,0,0,0-2.14,4.24A39.32,39.32,0,0,0,597.53,130Z" transform="translate(-70.1 -39.05)"/><path class="cls-2" d="M108.86,88.6A6.46,6.46,0,0,1,110,92.39a21.26,21.26,0,0,1-.3,3.83,20.8,20.8,0,0,1-.83,3.06,7.84,7.84,0,0,1-3.06,4.23H73.37a14.27,14.27,0,0,0,4.15-3.42A12.46,12.46,0,0,0,79.37,93q0-10.73,0-19.38V52.51c0-3.89-.64-6.76-1.93-8.58a16.51,16.51,0,0,0-1.69-2.06H92.26a14.7,14.7,0,0,0-2.7,7.05c0,.81-.08,1.7-.08,2.66v36.9q0,7.55.81,9a3.12,3.12,0,0,0,1.93,1.73,16.13,16.13,0,0,0,3.43.26,11.82,11.82,0,0,0,8-3.06A24.41,24.41,0,0,0,108.86,88.6Z" transform="translate(-70.1 -39.05)"/><path class="cls-2" d="M127.64,41.87a24.35,24.35,0,0,0-1.74,7.52q-.24,3.77-.36,6.46c-.08,1.8-.15,3.67-.2,5.6q-.12,6.76-.12,12.33,0,22.8,1.69,28a12,12,0,0,0,.73,1.77h-13.9a16.56,16.56,0,0,0,1.49-5c.16-1.48.31-3.24.44-5.28q.48-6.33.48-14.59t0-11.3q0-3-.12-5.94-.28-14.13-1.69-18l-.56-1.61Z" transform="translate(-70.1 -39.05)"/><path class="cls-2" d="M158.66,83.81l0-5.24c0-3-.29-5-.89-6.06a7.23,7.23,0,0,0-1.85-2.22,19.87,19.87,0,0,0-2.38-1.43h17.69a10.5,10.5,0,0,0-3.22,6,64.07,64.07,0,0,0-.65,10.71q0,14.1,1.7,18.78c-.38,0-.76,0-1.13,0H166.8q-17.73,0-26.87-11.4Q131.19,82,131.19,62q0-9.91,5.84-15.19,5.4-4.92,14.46-4.92l7.09.08c3.73,0,6.34-.45,7.82-1.37A5.71,5.71,0,0,0,168,39.05a11.7,11.7,0,0,1,1,5.32c0,2.26-.06,4.08-.2,5.46a38,38,0,0,1-.6,4.05,16,16,0,0,1-2.62,6.52q-1.53-8.05-3.83-11.11-2.58-3.39-8.05-3.39-6.93,0-9.79,5.56-2.06,4.07-2.06,12.33a67.37,67.37,0,0,0,3.51,21.71c1.63,4.86,3.68,8.32,6.12,10.36a6,6,0,0,0,3.93,1.61c1.35,0,2.22-.39,2.6-1.17a10.56,10.56,0,0,0,.6-4Q158.65,86.74,158.66,83.81Z" transform="translate(-70.1 -39.05)"/><path class="cls-2" d="M205.8,79.54l0-11a4.68,4.68,0,0,0-.73-3.06Q203.71,64,200.12,64h-6.37c-3.33,0-5.15.94-5.48,2.82a11.75,11.75,0,0,0-.12,1.73l0,12.09q0,15.63,1.61,19.58a15.78,15.78,0,0,0,2,3.34H176.63a19.15,19.15,0,0,0,1.51-5.12c.15-1.37.3-3.06.46-5.07q.45-6.33.45-14.46c0-5.43,0-9.17,0-11.22s-.06-4.07-.08-6c-.19-8.13-.45-13-.77-14.64a24.91,24.91,0,0,0-.8-3.28l-.73-1.82h15.11a13.8,13.8,0,0,0-3.23,8.71c-.08,1.1-.12,2.25-.12,3.46a9.25,9.25,0,0,0,.35,2.84,2.65,2.65,0,0,0,1.14,1.51c.73.48,2.43.73,5.12.73h3.83c2.74,0,4.43-.21,5.07-.61,1.08-.7,1.62-2.21,1.62-4.55q0-8.58-3.39-12.09h15.11a16.43,16.43,0,0,0-1.47,4.92c-.18,1.5-.3,3-.38,4.33s-.17,3-.25,4.81-.14,3.72-.2,5.68q-.12,6.86-.12,12.41,0,22.61,1.69,27.68a17.59,17.59,0,0,0,.73,1.81H202.13a13.35,13.35,0,0,0,2.46-4.65,36.74,36.74,0,0,0,.68-4.62Q205.8,89.13,205.8,79.54Z" transform="translate(-70.1 -39.05)"/><path class="cls-2" d="M223.32,60a14.48,14.48,0,0,1-1-5.52,45.59,45.59,0,0,1,.25-5.21,30.55,30.55,0,0,1,.64-3.69q1-3.7,2.38-3.71h35.49c1.56,0,2.6,2.31,3.14,6.93a37,37,0,0,1,.2,4,19,19,0,0,1-1,7.21q-3.46-10.76-9-13.78A4.89,4.89,0,0,0,252,45.5a2.74,2.74,0,0,0-1.89.62,4.64,4.64,0,0,0-1.13,2,20.45,20.45,0,0,0-.72,5.8V69l0,12.32V93a12.53,12.53,0,0,0,1,5.82,10.88,10.88,0,0,0,2.09,2.84,14.83,14.83,0,0,0,2.52,1.81H233.31A14.94,14.94,0,0,0,237,99.6,13.72,13.72,0,0,0,238.51,93V56.74a41.7,41.7,0,0,0-.48-8.16,5.38,5.38,0,0,0-1.17-2.46,2.75,2.75,0,0,0-1.9-.62,5,5,0,0,0-2.45.7,11.71,11.71,0,0,0-2.44,1.86,18.25,18.25,0,0,0-2.26,2.66,31.33,31.33,0,0,0-1.95,3.12A28.32,28.32,0,0,0,223.32,60Z" transform="translate(-70.1 -39.05)"/><path class="cls-2" d="M283.87,41.87a24.61,24.61,0,0,0-1.73,7.52q-.24,3.77-.36,6.46c-.08,1.8-.15,3.67-.2,5.6q-.12,6.76-.12,12.33,0,22.8,1.69,28a12,12,0,0,0,.72,1.77H270a16.28,16.28,0,0,0,1.49-5q.24-2.22.45-5.28.48-6.33.48-14.59t0-11.3q0-3-.12-5.94-.28-14.13-1.69-18L270,41.87Z" transform="translate(-70.1 -39.05)"/><path class="cls-2" d="M301.44,59.64c-.05,2.79-.08,6-.08,9.55q0,7.61.28,17.42t.44,11.16a21.5,21.5,0,0,0,.41,2.36,15.87,15.87,0,0,0,1.25,3.38h-10.8a14.58,14.58,0,0,0,1.47-4.81c.17-1.58.32-3.14.42-4.7q.33-4.75.32-12.77,0-9.7-.32-17.72l-.44-11.08c-.16-4.08-.81-7-1.93-8.7a10.46,10.46,0,0,0-1.7-1.86h12.53q2.38,5.49,5,10.88l5.48,10.72L325.57,85.1c0-1.69,0-3.51,0-5.44V73.38q0-20.14-2.46-29.09a8.16,8.16,0,0,0-1-2.42l12.12,0q-2,4-2.54,22.68c-.05,1.94-.08,3.79-.08,5.56l0,3.39V89.89q0,10.44.16,13.62h-6.52L313.61,81.76Z" transform="translate(-70.1 -39.05)"/><path class="cls-2" d="M364.21,83.81l0-5.24q0-4.54-.89-6.06a7.37,7.37,0,0,0-1.85-2.22,20.7,20.7,0,0,0-2.38-1.43h17.69a10.45,10.45,0,0,0-3.22,6,64.07,64.07,0,0,0-.65,10.71q0,14.1,1.69,18.78c-.37,0-.75,0-1.13,0h-1.08q-17.73,0-26.87-11.4Q336.73,82,336.73,62q0-9.91,5.85-15.19Q348,41.87,357,41.87l7.09.08c3.73,0,6.34-.45,7.81-1.37a5.61,5.61,0,0,0,1.58-1.53,11.7,11.7,0,0,1,1,5.32c0,2.26-.06,4.08-.2,5.46a40.69,40.69,0,0,1-.6,4.05,16,16,0,0,1-2.62,6.52q-1.53-8.05-3.83-11.11c-1.72-2.26-4.4-3.39-8.06-3.39q-6.93,0-9.79,5.56-2.06,4.07-2.05,12.33a67.64,67.64,0,0,0,3.5,21.71q2.46,7.29,6.13,10.36a6,6,0,0,0,3.93,1.61c1.35,0,2.22-.39,2.59-1.17a10.31,10.31,0,0,0,.61-4Q364.21,86.74,364.21,83.81Z" transform="translate(-70.1 -39.05)"/><path class="cls-2" d="M438.74,103.51a21,21,0,0,0,.52-4.05c0-1,0-1.76-.06-2.27s-.09-1.06-.16-1.64-.15-1.22-.24-1.93-.18-1.54-.26-2.48q-.93-9.63-6.57-15.83a18.28,18.28,0,0,0-5.4-4.17,11.48,11.48,0,0,0-4.77-1.43,13.16,13.16,0,0,0-2.88.24,44.27,44.27,0,0,0-2.26,14.14,50.55,50.55,0,0,0,.69,9.75,48.41,48.41,0,0,0,3.34,9.71H408.64q1-2.42,1-10.17a84.84,84.84,0,0,1,1.17-14.5,73.7,73.7,0,0,1,3-12A55.14,55.14,0,0,1,418,57.6a61.94,61.94,0,0,1,4.63-6.92A63.43,63.43,0,0,1,427,45.6c1.37-1.41,2.52-2.65,3.43-3.73h12.69a8.08,8.08,0,0,0-1.73,5.52,42,42,0,0,0,.52,5.28l1,7.33q5.52,38,9.87,43.51ZM420.57,65.68a9.19,9.19,0,0,1,3.3-.6,18.32,18.32,0,0,1,3.12.24,12.76,12.76,0,0,1,2.76.81,11.46,11.46,0,0,1,4.92,3.58q-2-10.35-2.42-12.65L430.84,50l-2.3,2.74A54.28,54.28,0,0,0,420.57,65.68Z" transform="translate(-70.1 -39.05)"/><path class="cls-2" d="M499.45,65.24q-3.06,0-3.06,5.52v5.07q0,14,.3,17.31a39.06,39.06,0,0,0,.6,4.57,9.88,9.88,0,0,0,.83,2.3,10.86,10.86,0,0,0,3.38,3.5H484.38a17.93,17.93,0,0,0,1.81-5.08c.22-1.39.38-2.87.49-4.43q.31-4.75.32-12.77,0-9.7-.32-17.72l-.45-11.08a23.34,23.34,0,0,0-.72-5.84,12.59,12.59,0,0,0-2.9-4.72h22.52q9.11,0,13.17,1.94a7,7,0,0,1,4.31,6.89,12,12,0,0,1-5.11,9.87Q511.46,65.24,499.45,65.24Zm10.05-7.39a8.65,8.65,0,0,0,1.87-2.7,7,7,0,0,0,.61-2.66,8.88,8.88,0,0,0-.35-2.44,4.41,4.41,0,0,0-1.35-2.13q-2.25-2-7.73-2c-2.2,0-3.64.27-4.31.81-1.24,1-1.85,3-1.85,6,0,3.36.26,5.43.8,6.22A3.7,3.7,0,0,0,499,60.47a11.44,11.44,0,0,0,3.21.34,9.9,9.9,0,0,0,4.07-.85A10.5,10.5,0,0,0,509.5,57.85Z" transform="translate(-70.1 -39.05)"/><path class="cls-2" d="M549,103.51a21.16,21.16,0,0,0,.53-4.05c0-1,0-1.76-.06-2.27s-.1-1.06-.16-1.64-.15-1.22-.24-1.93-.19-1.54-.27-2.48q-.91-9.63-6.56-15.83a18.28,18.28,0,0,0-5.4-4.17A11.52,11.52,0,0,0,532,69.71a13.33,13.33,0,0,0-2.89.24,44.54,44.54,0,0,0-2.25,14.14,51.56,51.56,0,0,0,.68,9.75,48.45,48.45,0,0,0,3.35,9.71h-12q1-2.42,1-10.17A84.84,84.84,0,0,1,521,78.88a73.7,73.7,0,0,1,3-12,54.35,54.35,0,0,1,4.19-9.25,61.94,61.94,0,0,1,4.63-6.92,63.43,63.43,0,0,1,4.37-5.08q2.06-2.12,3.43-3.73h12.69a8.08,8.08,0,0,0-1.74,5.52,42.53,42.53,0,0,0,.53,5.28l1,7.33q5.52,38,9.87,43.51ZM530.8,65.68a9.11,9.11,0,0,1,3.3-.6,18.49,18.49,0,0,1,3.12.24,12.76,12.76,0,0,1,2.76.81,11.46,11.46,0,0,1,4.92,3.58q-2-10.35-2.42-12.65L541.07,50l-2.3,2.74A54.28,54.28,0,0,0,530.8,65.68Z" transform="translate(-70.1 -39.05)"/><path class="cls-2" d="M561.13,60a14.49,14.49,0,0,1-1-5.52,45.92,45.92,0,0,1,.24-5.21,30.55,30.55,0,0,1,.64-3.69q1-3.7,2.38-3.71h35.49q2.34,0,3.14,6.93a37,37,0,0,1,.21,4,18.76,18.76,0,0,1-1,7.21q-3.47-10.76-9-13.78a4.88,4.88,0,0,0-2.45-.72,2.75,2.75,0,0,0-1.9.62,4.63,4.63,0,0,0-1.12,2,20.07,20.07,0,0,0-.73,5.8V69l0,12.32V93a12.53,12.53,0,0,0,1,5.82,10.88,10.88,0,0,0,2.09,2.84,14.83,14.83,0,0,0,2.52,1.81H571.12a14.94,14.94,0,0,0,3.71-3.91A13.72,13.72,0,0,0,576.32,93V56.74a41.7,41.7,0,0,0-.48-8.16,5.18,5.18,0,0,0-1.17-2.46,2.74,2.74,0,0,0-1.89-.62,5,5,0,0,0-2.46.7,12,12,0,0,0-2.44,1.86,18.21,18.21,0,0,0-2.25,2.66,29.68,29.68,0,0,0-2,3.12A28.82,28.82,0,0,0,561.13,60Z" transform="translate(-70.1 -39.05)"/><path class="cls-2" d="M635.46,79.54l0-11a4.75,4.75,0,0,0-.72-3.06Q633.36,64,629.78,64h-6.36q-5,0-5.48,2.82a11.75,11.75,0,0,0-.12,1.73l0,12.09q0,15.63,1.61,19.58a16.13,16.13,0,0,0,2,3.34H606.3a19.53,19.53,0,0,0,1.51-5.12c.14-1.37.3-3.06.46-5.07q.43-6.33.44-14.46t0-11.22q0-3.09-.08-6c-.19-8.13-.44-13-.76-14.64a24.44,24.44,0,0,0-.81-3.28l-.72-1.82h15.1a13.8,13.8,0,0,0-3.22,8.71c-.08,1.1-.12,2.25-.12,3.46a9.3,9.3,0,0,0,.34,2.84,2.67,2.67,0,0,0,1.15,1.51c.72.48,2.43.73,5.12.73h3.82c2.74,0,4.43-.21,5.08-.61,1.07-.7,1.61-2.21,1.61-4.55q0-8.58-3.38-12.09h15.1a17,17,0,0,0-1.47,4.92c-.17,1.5-.3,3-.38,4.33s-.16,3-.24,4.81-.15,3.72-.2,5.68q-.12,6.86-.12,12.41,0,22.61,1.69,27.68c.19.56.43,1.17.72,1.81H631.8a13.13,13.13,0,0,0,2.45-4.65,34.85,34.85,0,0,0,.69-4.62Q635.46,89.13,635.46,79.54Z" transform="translate(-70.1 -39.05)"/></g></svg>
