<svg xmlns="http://www.w3.org/2000/svg" viewBox="0 0 1080 1080"><defs><style>.cls-1{fill:#d93633;}.cls-1,.cls-2,.cls-3,.cls-4,.cls-5,.cls-6,.cls-8{fill-rule:evenodd;}.cls-2{fill:#ff981d;}.cls-3{fill:#9abe5d;}.cls-4{fill:#ffd900;}.cls-5{fill:#6a449e;}.cls-6{fill:#2c97c7;}.cls-7,.cls-8{fill:#bdbedf;}</style></defs><g id="icon-dark-nobg"><g id="logo-2" data-name="logo"><g id="rainbow"><path class="cls-1" d="M890.28,370.39c-.72.72-25,30.77-55.48,57.64-20.44,18-43.69,34.55-64.6,39.92-17.83,4.59-45.22,4.58-73.53,2.59-35.45-2.49-72.35-8.1-93.77-11.71a118,118,0,0,1,21,34.1A133.19,133.19,0,0,1,629.57,510c24.72,3.37,53.67,6.58,80.39,7.65h0c24.35,1,46.84.18,62.57-3.86,18.85-4.84,39.43-18,58.62-33.44C861.29,456,888,425.93,899,413V375.93C899,371.43,893.46,367.21,890.28,370.39Z"/><path class="cls-2" d="M831.15,480.34c-19.19,15.47-39.77,28.6-58.62,33.44-15.73,4-38.22,4.83-62.57,3.86h0c-26.72-1.07-55.67-4.28-80.39-7.65A142.65,142.65,0,0,1,634,541c.06,1.6.09,3.22.09,4.84a146.85,146.85,0,0,1-.85,15.81c23.89,3.19,51.32,6.14,76.73,7.16h0c24.35,1,46.84.18,62.57-3.86,18.85-4.85,39.43-18,58.62-33.44C861.29,507.22,888,477.12,899,464.18V413C888,425.93,861.29,456,831.15,480.34Z"/><path class="cls-3" d="M831.15,582.72c-19.19,15.47-39.77,28.59-58.62,33.44C756.8,620.2,734.31,621,710,620h0c-31.07-1.24-65.14-5.37-92.08-9.3a121.58,121.58,0,0,1-27.94,33.16l6.11,11.07a.94.94,0,0,1,.1.1c1.45,1.34,2.86,2.75,4.24,4.19,46.5,7.41,131.68,18.51,172.14,8.11C821,654.89,880.93,587.73,899,566.55V515.36C888,528.31,861.29,558.41,831.15,582.72Z"/><path class="cls-4" d="M831.15,531.53C812,547,791.38,560.12,772.53,565c-15.73,4-38.22,4.83-62.57,3.86h0c-25.41-1-52.84-4-76.73-7.16a140.11,140.11,0,0,1-4.85,24.41c-.88,3-1.87,5.9-3,8.77a116.24,116.24,0,0,1-7.52,15.86c26.94,3.93,61,8.06,92.08,9.3h0c24.35,1,46.84.19,62.57-3.85,18.85-4.85,39.43-18,58.62-33.44C861.29,558.41,888,528.31,899,515.36V464.18C888,477.12,861.29,507.22,831.15,531.53Z"/><path class="cls-5" d="M771.16,709.12c-32.81,8.74-93.95,12.11-141.14,5.68a143.78,143.78,0,0,1,4.06,34.13,147,147,0,0,1-1,17.18c27.32-11.49,66.19-21.48,118.8-21.48,39.53,0,88.48-2.17,116.35-19.07,14.35-8.7,30.82-25.3,30.82-76.85v-31C883.76,644.66,856.5,686.4,771.16,709.12Z"/><path class="cls-6" d="M772.53,667.34c-40.46,10.4-125.64-.7-172.14-8.11,13.8,14.39,24.25,33.6,29.63,55.57h0c47.19,6.43,108.33,3.06,141.14-5.68,75.71-20.16,105.71-55.28,122.18-81.75a37.77,37.77,0,0,1,5.7-9.63V566.55C880.93,587.73,821,654.89,772.53,667.34Z"/></g><circle id="head" class="cls-7" cx="540" cy="265.03" r="87.13"/><path id="butterfly" class="cls-8" d="M924.63,305.42c-19,0-39.37,28.67-78.6,34.95-39,6.25-94.16,8.41-94.16,8.41-149.61,0-201.54,69.39-208.67,80.11-1.06,0-2.13-.07-3.2-.07s-2.14,0-3.2.07c-7.13-10.72-59.06-80.11-208.67-80.11,0,0-55.13-2.16-94.16-8.41-39.23-6.28-59.59-34.95-78.6-34.95-16,0-16.63,21.07-16.63,21.07V648.71c0,117,73.25,138.14,189.39,138.14,73.79,0,118,22.16,137.2,38.62,4.61,3.95,8.84,7.81,12.74,11.57q3.14,3.4,6.51,6.47c33.36,34.32,39.11,58.33,55.29,58.59h.26c16.18-.26,21.93-24.27,55.29-58.59q3.38-3.06,6.51-6.47c3.9-3.76,8.13-7.62,12.74-11.57,19.23-16.46,63.41-38.62,137.2-38.62,116.14,0,189.39-21.13,189.39-138.14V326.49S940.67,305.42,924.63,305.42ZM613.79,422.21c15.23-8.92,33-16.06,52.71-21.22,25.34-6.63,54.07-10,85.37-10,.55,0,1.1,0,1.65,0,1.68-.06,30.54-1.22,61.86-4.27h0c-4.61,13-32.65,36.15-71.55,45.81-38.29,9.5-138.24-2.58-141.42-3C605.79,427.15,609.57,424.68,613.79,422.21ZM326.48,391c.55,0,1.1,0,1.65,0,31.3,0,60,3.35,85.37,10,19.75,5.16,37.48,12.3,52.71,21.22,4.22,2.47,8,4.94,11.38,7.33-3.18.39-103.13,12.47-141.42,3-38.9-9.66-66.94-32.84-71.55-45.81h0C295.94,389.75,324.8,390.91,326.48,391Zm119.44,358a147,147,0,0,0,1,17.18c-27.32-11.49-66.19-21.48-118.8-21.48-39.53,0-88.48-2.17-116.35-19.07-14.35-8.7-30.82-25.3-30.82-76.85V376.08c0-4.55,5.82-9,8.85-5.65,25.84,28.75,67.86,84.13,120,97.52,40.17,10.33,128.78-2.63,167.3-9.12-19.14,21.43-31.18,52.48-31.18,87,0,38.5,14.95,72.65,38,94h0c18.54-10.38,30.9-20.4,41.91-33.84,0,0-16.56-10.29-16.56-49.23,0-55.95,26.41-66.69,26.41-66.69s28.2-8.51,28.2,56.39c0,49.58-41.27,82.31-60.76,95-27.89,18.16-47.9,46.45-54.44,79.09A144.43,144.43,0,0,0,445.92,748.93ZM899,648.71c0,51.55-16.47,68.15-30.82,76.85-27.87,16.9-76.82,19.07-116.35,19.07-52.61,0-91.48,10-118.8,21.48a147,147,0,0,0,1-17.18c0-38.5-15-72.66-38-94-18.53,10.39-30.9,20.4-41.9,33.84,0,0,16.56,10.29,16.56,49.24,0,56-26.41,66.69-26.41,66.69s-28.2,8.5-28.2-56.4c0-50,42.81-83.28,61.83-95.6,24.11-15.63,42.34-39.06,50.45-66.63a142.56,142.56,0,0,0,5.7-40.22c0-34.55-12-65.6-31.18-87C641.42,465.32,730,478.28,770.2,468c52.13-13.39,118.88-96.36,120.08-97.56,3.18-3.18,8.76,1,8.76,5.54Z"/><path id="swoosh" class="cls-8" d="M365.27,525.28c-101.51,0-141.67-69.55-156.72-102a2.56,2.56,0,0,1,4.31-2.69c40.57,49.34,95.31,72.75,144.81,72.75,33.86,0,54.91-2.56,79.24-13.71a2.56,2.56,0,0,1,3.41,3.37C434.61,496,416.09,525.29,365.27,525.28Z"/></g></g></svg>
